<svg xmlns="http://www.w3.org/2000/svg" fill="none" preserveAspectRatio="none" viewBox="0 0 1341.67 153.48" width="100%" height="auto">
  <path d="M1307.51 15.4011L1288.4 13.9141L1258.89 12.3421L1226.2 15.741L1185.34 11.2375L1148.82 10.7489L1112.21 21.5828L1081.8 21.3492L1034.98 26.5749L1001.07 35.7944L893.851 28.7204L833.542 20.0745L799.219 23.4947L755.172 19.1187L727.959 7.28633L646.975 1.44452L622.459 7.66869L575.226 0L563.866 4.77965L525.458 11.5986L494.568 9.77175L472.013 14.8913L414.809 20.0108L378.771 19.0336L319.279 23.2822L271.963 19.501L221.297 18.3964L183.869 22.7937L141.212 16.9519L109.178 15.4011L78.2058 9.49559L37.9997 11.5137L0 0.913438V153.48L42.6577 142.859L68.3177 135.339L104.928 136.613L128.055 142.2L174.226 141.478L217.375 143.602L256.6 147.702L283.731 138.185L336.358 138.738L381.304 136.783L405.82 140.692L447.824 138.61L473.974 143.071L510.503 141.605C510.503 141.605 547.113 150.379 568.606 150.634C590.098 150.889 632.347 145.748 632.347 145.748L710.962 139.906L737.194 134.064L816.788 135.763L866.475 139.184L904.882 136.018L961.106 138.929L998.615 131.876L1031.3 137.463L1077.23 138.44L1099.7 146.236L1145.63 147.702L1182.16 143.326L1235.52 145.025L1282.43 140.777L1314.54 146.619L1341.67 153.48V0.913438L1307.51 15.4011Z" fill="currentColor"/>
</svg>
