<svg xmlns="http://www.w3.org/2000/svg" viewBox="0 0 1920 90" preserveAspectRatio="none" width="100%" height="90">
  <path d="M521.271 22.3941C520.771 23.3941 526.774 30.8941 526.774 31.3941C540.782 23.3938 557.624 21.3943 564.294 21.3945C580.702 11.3945 592.809 17.2279 596.811 21.3945C612.819 13.3945 614.32 26.3945 639.333 24.8945C659.343 30.0945 675.685 26.7279 681.355 24.3945C688.559 32.939 701.032 31.9547 706.368 30.3945C738.785 13.9945 750.558 17.8949 752.392 21.8951C762.397 16.8956 771.402 33.8945 777.905 35.8945C784.409 37.8945 787.41 28.8945 787.91 28.8945C788.411 28.8945 794.914 31.3945 804.919 33.3945C812.923 34.9945 831.266 31.0612 839.437 28.8945C850.243 32.4945 881.626 30.3945 895.967 28.8945C907.473 32.8945 899.468 33.8945 927.483 27.3945C955.498 20.8945 949.494 29.3945 959.5 25.8945C967.504 23.0945 982.845 24.0612 989.515 24.8945C991.35 23.5612 995.819 20.7945 999.02 20.3945C1002.22 19.9945 1005.02 21.2279 1006.02 21.8945C1006.02 19.8945 1010.36 16.7279 1012.53 15.3945C1038.04 10.8945 1060.05 18.8945 1061.05 18.8945C1062.05 18.8945 1061.05 20.3945 1068.56 16.8945C1076.06 13.3945 1080.56 21.8945 1081.06 21.8945C1096.07 14.3945 1100.07 23.8945 1103.07 26.3945C1106.08 28.8945 1120.58 31.8945 1127.09 34.8945C1133.59 37.8945 1143.1 48.3945 1148.6 50.3945C1153 51.9945 1176.11 50.7279 1187.12 49.8945C1191.62 55.3945 1221.64 52.8945 1227.14 51.3945C1232.64 49.8945 1238.65 54.8945 1240.15 53.3945C1241.65 51.8945 1263.16 52.8945 1286.17 45.8945C1304.58 40.2945 1329.19 43.5612 1339.2 45.8945C1353.2 61.8945 1369.21 49.3945 1374.72 44.8945C1379.12 41.2945 1384.55 41.7279 1386.72 42.3945C1389.56 43.5612 1395.73 45.8945 1397.73 45.8945C1400.23 45.8945 1409.73 54.3945 1412.74 54.8945C1415.14 55.2945 1417.4 54.0612 1418.24 53.3945C1424.74 62.3945 1428.74 62.8945 1438.75 67.3945C1446.75 70.9945 1466.76 59.5612 1475.77 53.3945C1484.77 58.3945 1494.78 53.8945 1503.78 52.3945C1510.99 51.1945 1515.46 51.8945 1516.79 52.3945C1523.96 49.2279 1542.9 44.0945 1561.31 48.8945C1579.72 53.6945 1594.33 47.8945 1599.33 44.3945C1616.84 44.3945 1636.35 31.3945 1641.86 29.3945C1647.36 27.3945 1660.36 28.3945 1660.36 29.3945C1660.36 30.3945 1665.87 39.8945 1666.87 39.8945C1667.67 39.8945 1668.87 38.5612 1669.37 37.8945C1677.37 41.0945 1699.72 44.8945 1709.89 46.3945L1759.42 46.8945C1769.02 42.8945 1786.1 48.5612 1793.43 51.8945H1799.94V50.3945C1787.43 33.8945 1836.46 45.8945 1838.96 45.8945C1840.96 45.8945 1845.79 41.5612 1847.96 39.3945L1845.96 38.3945C1844.96 37.8945 1843.46 29.8945 1842.46 31.3945C1841.66 32.5945 1838.12 32.8945 1836.46 32.8945L0 34.393V90H1920V25.3945C1910.33 25.8945 1890.68 27.1945 1889.48 28.3945C1888.15 26.5612 1884.58 23.8945 1880.98 27.8945C1877.38 31.8945 1868.14 29.8945 1863.97 28.3945H1846.46C1846.96 27.8945 1848.96 27.8945 1847.96 26.3945C1846.96 24.8945 1848.46 28.8945 1846.46 24.3945C1844.46 19.8945 1841.46 17.8945 1842.96 16.3945C1844.46 14.8945 1862.47 13.3945 1864.97 14.8945C1867.47 16.3945 1872.48 17.3945 1876.48 16.3945C1879.68 15.5945 1883.81 13.0612 1885.48 11.8945C1886.15 12.0612 1887.68 12.6945 1888.48 13.8945C1889.48 15.3945 1917.5 9.89453 1920 11.3945V25.3945L521.271 22.3941Z" fill="currentColor"/>
</svg>
